<svg xmlns="http://www.w3.org/2000/svg" width="64" height="64"><path d="M47.684 55.682l-5.54-9.86-9.824-17.486-9.997 17.385-5.688 9.89a24.329 24.329 0 0015.567 5.633 24.329 24.329 0 0015.482-5.562z" fill="none" stroke="#000" stroke-width="1.192"/><path d="M20.33 15.679A24.329 24.329 0 007.873 36.915a24.329 24.329 0 008.762 18.697l5.688-9.891 9.997-17.385 9.824 17.486 5.54 9.86a24.329 24.329 0 008.847-18.767A24.329 24.329 0 0043.769 15.51" fill="none" stroke="#000" stroke-width="1.192"/><path d="M38.69 23.052l-6.37-3.21-6.256 3.43 1.084-7.052-5.195-4.89 7.041-1.148 3.046-6.45 3.267 6.34 7.077.903-5.021 5.068z" stroke-width="1.19167755" fill="none" stroke="#000"/><text transform="matrix(.15547 0 0 .15547 34.591 20.163)" y="126.244" x="-149.679" style="line-height:1.35;white-space:pre;inline-size:100.68" font-weight="400" font-size="105.833" font-family="sans-serif" stroke-width="3.175"><tspan x="-149.679" y="126.244"><tspan style="-inkscape-font-specification:'Arial Bold'" font-weight="700" font-size="123.472" font-family="Arial">E</tspan></tspan></text><text style="line-height:1.35;white-space:pre;inline-size:107.192" x="-149.679" y="126.244" transform="matrix(.15547 0 0 .15547 48.445 37.58)" font-weight="400" font-size="70.556" font-family="sans-serif" stroke-width="3.175"><tspan x="-149.679" y="126.244"><tspan style="-inkscape-font-specification:'Arial Bold'" font-weight="700" font-size="123.472" font-family="Arial">B</tspan></tspan></text><text transform="matrix(.15547 0 0 .15547 63.027 20.24)" y="126.244" x="-149.679" style="line-height:1.35;white-space:pre;inline-size:109.109" font-weight="400" font-size="105.833" font-family="sans-serif" stroke-width="3.175"><tspan x="-149.679" y="126.244"><tspan style="-inkscape-font-specification:'Arial Bold'" font-weight="700" font-size="123.472" font-family="Arial">N</tspan></tspan></text><path d="M27.897 35.373h8.477v1.496h-8.477z"/></svg>